<?xml version="1.0" standalone="no"?>
<!DOCTYPE svg PUBLIC "-//W3C//DTD SVG 20010904//EN"
 "http://www.w3.org/TR/2001/REC-SVG-20010904/DTD/svg10.dtd">
<svg version="1.0" xmlns="http://www.w3.org/2000/svg"
 width="256.000000pt" height="256.000000pt" viewBox="0 0 256.000000 256.000000"
 preserveAspectRatio="xMidYMid meet">
<metadata>
Created by potrace 1.14, written by Peter Selinger 2001-2017
</metadata>
<g transform="translate(0.000000,256.000000) scale(0.100000,-0.100000)"
fill="#000000" stroke="none">
<path d="M1446 2403 c-1 -1 -37 -3 -80 -4 -52 -1 -82 -6 -92 -16 -23 -24 -7
-32 60 -31 34 1 69 -2 76 -7 9 -5 11 -4 6 3 -5 8 -1 10 9 5 18 -6 16 -34 -6
-88 -7 -16 -13 -34 -14 -40 -1 -5 -3 -12 -4 -15 -2 -3 -4 -12 -6 -20 -3 -14
-43 -142 -101 -319 -13 -40 -21 -78 -18 -82 3 -5 2 -9 -3 -9 -4 0 -16 -28 -26
-63 -11 -34 -21 -69 -25 -77 -3 -8 -6 -18 -7 -22 -2 -5 -3 -9 -5 -10 -1 -2 -3
-11 -6 -20 -8 -35 -11 -45 -53 -178 -23 -74 -46 -143 -52 -153 -5 -10 -7 -22
-4 -27 4 -6 2 -10 -3 -10 -5 0 -9 -6 -9 -12 0 -7 -17 -67 -38 -133 -22 -66
-40 -124 -42 -130 -23 -86 -78 -251 -85 -253 -4 -2 -6 -8 -2 -13 3 -5 -1 -23
-10 -39 -8 -17 -10 -30 -5 -30 6 0 3 -7 -5 -16 -9 -8 -14 -20 -11 -25 4 -5 3
-9 -2 -9 -4 0 -9 -10 -9 -22 -1 -13 -4 -39 -8 -58 -12 -77 -13 -91 -4 -96 4
-3 6 -9 3 -14 -7 -11 15 -70 42 -110 12 -19 23 -31 23 -26 0 5 8 1 19 -8 10
-9 28 -18 40 -19 11 -1 21 -4 21 -8 0 -7 152 -4 180 3 8 2 45 19 83 37 65 32
187 135 187 158 0 6 4 13 8 15 10 4 55 78 51 83 -2 2 -17 7 -33 11 -21 5 -27
4 -22 -5 4 -6 3 -11 -1 -11 -5 0 -17 -16 -27 -35 -25 -46 -92 -112 -138 -136
-48 -25 -110 -25 -131 -1 -19 20 -23 92 -6 92 5 0 8 4 4 9 -5 9 15 74 34 111
4 8 7 23 5 33 -1 9 2 17 7 17 5 0 8 3 7 8 -1 4 9 41 22 82 13 41 25 81 27 88
7 26 10 37 16 52 17 44 60 187 60 198 0 6 5 12 10 12 6 0 8 3 5 6 -6 6 25 111
44 151 6 11 7 26 4 32 -4 6 -3 11 1 11 5 0 15 21 22 48 7 26 12 47 11 47 -1 0
6 17 15 38 8 20 13 37 10 37 -3 0 -1 9 5 21 7 11 22 55 35 97 38 126 126 406
132 422 8 19 11 29 17 57 2 12 10 31 16 42 6 12 8 21 4 21 -3 0 -2 6 4 13 6 7
12 24 14 37 2 14 6 30 10 35 3 6 21 62 41 125 19 63 38 123 42 132 7 17 -5 18
-165 15 -94 -1 -173 -3 -174 -4z"/>
</g>
</svg>
